<?xml version="1.0" standalone="no"?>
<!DOCTYPE svg PUBLIC "-//W3C//DTD SVG 20010904//EN"
 "http://www.w3.org/TR/2001/REC-SVG-20010904/DTD/svg10.dtd">
<svg version="1.0" xmlns="http://www.w3.org/2000/svg"
 width="512.000000pt" height="512.000000pt" viewBox="0 0 512.000000 512.000000"
 preserveAspectRatio="xMidYMid meet">
<metadata>
Created by potrace 1.14, written by Peter Selinger 2001-2017
</metadata>
<g transform="translate(0.000000,512.000000) scale(0.100000,-0.100000)"
fill="#000000" stroke="none">
<path d="M3975 5004 c-217 -32 -426 -155 -536 -317 -3 -5 -48 16 -100 45 -115
66 -258 129 -349 153 -3 0 -14 4 -25 8 -11 3 -32 8 -48 11 -15 3 -36 7 -47 11
-46 15 -238 31 -337 29 -98 -1 -268 -19 -284 -30 -4 -2 -24 -6 -44 -10 -105
-16 -370 -130 -483 -206 -314 -211 -536 -510 -637 -854 -24 -80 -31 -115 -53
-234 -8 -48 -9 -345 0 -400 97 -648 546 -1146 1168 -1298 47 -12 104 -24 127
-27 23 -3 57 -8 75 -10 47 -7 264 -6 318 0 44 5 90 12 140 22 227 40 498 171
685 329 292 248 474 570 541 959 4 22 9 441 11 931 l4 892 -23 4 c-13 2 -59
-1 -103 -8z m-1240 -909 c312 -83 527 -355 534 -676 8 -351 -246 -658 -594
-717 -70 -12 -218 -6 -285 12 -278 72 -485 297 -536 579 -22 127 6 309 68 432
101 200 311 355 518 382 25 3 47 7 48 8 10 9 195 -6 247 -20z"/>
<path d="M3710 1863 c-52 -19 -171 -61 -265 -94 -93 -32 -179 -63 -190 -68
-11 -5 -81 -31 -155 -56 -74 -26 -166 -58 -205 -72 -713 -251 -898 -317 -940
-333 -27 -10 -90 -33 -140 -50 -227 -81 -371 -198 -477 -390 -26 -48 -64 -144
-72 -182 -3 -13 -9 -45 -14 -73 -16 -79 -8 -240 17 -330 12 -44 26 -86 30 -94
7 -10 28 -6 107 22 136 49 351 125 739 261 182 64 346 123 365 131 19 8 195
70 390 139 542 190 543 190 640 254 64 43 166 142 208 204 64 93 117 225 137
342 23 136 -23 428 -67 425 -7 0 -56 -16 -108 -36z"/>
</g>
</svg>
